<svg xmlns="http://www.w3.org/2000/svg" viewBox="0 0 32 32" role="img" aria-label="UmaStudies">
  <!-- Flat single-path version of the book mark, used by the header logo via
       CSS mask so it can be tinted to the page accent. The horseshoe is a
       through-hole (evenodd). Keep the geometry in sync with favicon.svg. -->
  <g transform="rotate(-7 16 16)">
    <path fill-rule="evenodd" fill="#5B8C6A" d="M10.5 5.5 H20.5 A2.5 2.5 0 0 1 23 8 V23 A2.5 2.5 0 0 1 20.5 25.5 H10.5 A2.5 2.5 0 0 1 8 23 V8 A2.5 2.5 0 0 1 10.5 5.5 Z M10.5 14.5 A5 5 0 0 1 20.5 14.5 L20.5 21.5 L18 21.5 L18 14.5 A2.5 2.5 0 0 0 13 14.5 L13 21.5 L10.5 21.5 Z"/>
  </g>
</svg>
